<?xml version="1.0" encoding="UTF-8" standalone="no"?>
<!-- Created with Inkscape (http://www.inkscape.org/) -->

<svg
   width="11in"
   height="11in"
   viewBox="0 0 279.4 279.4"
   version="1.1"
   id="svg5"
   inkscape:version="1.1.2 (b8e25be833, 2022-02-05)"
   sodipodi:docname="logo.svg"
   inkscape:export-filename="C:\Users\milan\OneDrive\Desktop\logo.png"
   inkscape:export-xdpi="54.549999"
   inkscape:export-ydpi="54.549999"
   xmlns:inkscape="http://www.inkscape.org/namespaces/inkscape"
   xmlns:sodipodi="http://sodipodi.sourceforge.net/DTD/sodipodi-0.dtd"
   xmlns="http://www.w3.org/2000/svg"
   xmlns:svg="http://www.w3.org/2000/svg">
  <sodipodi:namedview
     id="namedview7"
     pagecolor="#ffffff"
     bordercolor="#f40000"
     borderopacity="1"
     inkscape:pageshadow="0"
     inkscape:pageopacity="0"
     inkscape:pagecheckerboard="false"
     inkscape:document-units="mm"
     showgrid="false"
     inkscape:object-paths="true"
     inkscape:snap-intersection-paths="true"
     inkscape:snap-smooth-nodes="true"
     inkscape:snap-midpoints="true"
     inkscape:snap-object-midpoints="true"
     inkscape:snap-center="true"
     inkscape:snap-text-baseline="true"
     inkscape:zoom="0.64"
     inkscape:cx="434.375"
     inkscape:cy="479.6875"
     inkscape:window-width="1920"
     inkscape:window-height="1009"
     inkscape:window-x="1912"
     inkscape:window-y="-4"
     inkscape:window-maximized="1"
     inkscape:current-layer="layer1"
     borderlayer="false"
     inkscape:showpageshadow="true"
     showborder="true"
     units="in"
     inkscape:snap-page="true"
     inkscape:snap-bbox="true"
     inkscape:bbox-paths="true"
     inkscape:bbox-nodes="true"
     inkscape:snap-bbox-edge-midpoints="true"
     inkscape:snap-bbox-midpoints="true" />
  <defs
     id="defs2">
    <rect
       x="15.612235"
       y="693.18323"
       width="1184.5351"
       height="264.95599"
       id="rect8483" />
    <rect
       x="15.612235"
       y="693.18323"
       width="678.52252"
       height="168.11163"
       id="rect8483-3" />
    <rect
       x="15.612235"
       y="693.18323"
       width="678.52252"
       height="168.11163"
       id="rect8483-5" />
  </defs>
  <g
     inkscape:label="Layer 1"
     inkscape:groupmode="layer"
     id="layer1"
     style="display:inline">
    <g
       id="g12068"
       transform="translate(42.802406,-31.459945)">
      <g
         id="g67082"
         transform="matrix(0.902823,0,0,0.902823,3.0868037,3.8407468)">
        <path
           id="path12"
           style="fill:#f7a800;fill-opacity:1;fill-rule:nonzero;stroke:none;stroke-width:0.0376577"
           d="m 162.32904,137.83951 c -9.14231,5.90122 -18.2852,11.80205 -27.42774,17.70312 v -3.40234 h -23.58984 v 18.47656 c -5.59522,3.57136 -11.18912,7.14478 -16.78516,10.71484 2.945915,4.61764 5.89477,9.2334 8.83985,13.85157 1.38411,-0.8831 2.76683,-1.76837 4.15039,-2.65235 v 17.26289 h 3.16601 c 0.0149,-17.20637 -0.007,-5.83775 0,-23.04414 -2.11419,1.35349 -4.22921,2.70566 -6.34375,4.0586 -1.81185,-2.83724 -3.6237,-5.67448 -5.435547,-8.51172 5.191997,-3.31455 10.384487,-6.62833 15.576177,-9.94336 v -17.04492 h 17.25586 v 6.0332 c 10.30533,-6.59292 20.57624,-13.23917 30.88281,-19.83008 21.40718,13.64979 42.91969,27.13625 64.32617,40.78711 -1.8112,2.83659 -3.6224,5.67318 -5.43359,8.50977 -2.1166,-1.35147 -4.23255,-2.70396 -6.34961,-4.05469 v 11.66302 h 3.20117 c -0.0648,-11.13334 -0.0129,5.24974 -0.0293,-5.88372 1.38289,0.88335 2.76506,1.76781 4.14844,2.65039 2.944,-4.61803 5.8911,-9.23407 8.83594,-13.85157 -22.87627,-14.59727 -45.8238,-29.0822 -68.70117,-43.67773 -0.0957,0.0618 -0.19141,0.1237 -0.28711,0.18555 z"
           sodipodi:nodetypes="cccccccccccccccccccccccccccc" />
        <text
           xml:space="preserve"
           transform="matrix(0.26458333,0,0,0.26458333,-42.101837,7.7609942)"
           id="text8481"
           style="font-style:normal;font-variant:normal;font-weight:500;font-stretch:normal;font-size:144px;line-height:1.25;font-family:Metropolis;-inkscape-font-specification:'Metropolis Medium';white-space:pre;shape-inside:url(#rect8483);fill:#0d2240;fill-opacity:1;stroke:none"
           inkscape:export-filename="C:\Users\milan\text8481.png"
           inkscape:export-xdpi="200"
           inkscape:export-ydpi="200"><tspan
             x="15.611328"
             y="849.58359"
             id="tspan67232">JustHouse<tspan
   style="font-weight:normal;font-size:170px;-inkscape-font-specification:Metropolis;fill:#00a8e1"
   id="tspan67230">MKE</tspan></tspan></text>
      </g>
      <text
         xml:space="preserve"
         transform="matrix(0.26458333,0,0,0.26458333,150.15224,6.8835485)"
         id="text8481-5"
         style="font-style:normal;font-variant:normal;font-weight:normal;font-stretch:normal;font-size:144px;line-height:1.25;font-family:'Open Sans';-inkscape-font-specification:'Open Sans';white-space:pre;shape-inside:url(#rect8483-3);fill:#d4aa00;fill-opacity:1;stroke:none"
         inkscape:export-filename="C:\Users\milan\text8481.png"
         inkscape:export-xdpi="200"
         inkscape:export-ydpi="200" />
    </g>
  </g>
</svg>
