<?xml version="1.0" encoding="UTF-8" standalone="no"?>
<!-- Created with Inkscape (http://www.inkscape.org/) -->

<svg
   width="11in"
   height="11in"
   viewBox="0 0 279.4 279.4"
   version="1.1"
   id="svg5"
   inkscape:version="1.2.1 (9c6d41e410, 2022-07-14)"
   sodipodi:docname="web_ico.svg"
   inkscape:export-filename="web_ico.png"
   inkscape:export-xdpi="54.549999"
   inkscape:export-ydpi="54.549999"
   xmlns:inkscape="http://www.inkscape.org/namespaces/inkscape"
   xmlns:sodipodi="http://sodipodi.sourceforge.net/DTD/sodipodi-0.dtd"
   xmlns="http://www.w3.org/2000/svg"
   xmlns:svg="http://www.w3.org/2000/svg">
  <sodipodi:namedview
     id="namedview7"
     pagecolor="#ffffff"
     bordercolor="#f40000"
     borderopacity="1"
     inkscape:pageshadow="0"
     inkscape:pageopacity="0"
     inkscape:pagecheckerboard="false"
     inkscape:document-units="mm"
     showgrid="false"
     inkscape:object-paths="true"
     inkscape:snap-intersection-paths="true"
     inkscape:snap-smooth-nodes="true"
     inkscape:snap-midpoints="true"
     inkscape:snap-object-midpoints="true"
     inkscape:snap-center="true"
     inkscape:snap-text-baseline="true"
     inkscape:zoom="0.64"
     inkscape:cx="256.25"
     inkscape:cy="565.625"
     inkscape:window-width="1920"
     inkscape:window-height="1057"
     inkscape:window-x="-8"
     inkscape:window-y="-8"
     inkscape:window-maximized="1"
     inkscape:current-layer="g67082"
     borderlayer="false"
     inkscape:showpageshadow="true"
     showborder="true"
     units="in"
     inkscape:snap-page="true"
     inkscape:snap-bbox="true"
     inkscape:bbox-paths="true"
     inkscape:bbox-nodes="true"
     inkscape:snap-bbox-edge-midpoints="true"
     inkscape:snap-bbox-midpoints="true"
     inkscape:deskcolor="#d1d1d1" />
  <defs
     id="defs2">
    <rect
       x="15.612235"
       y="693.18323"
       width="1184.5351"
       height="264.95599"
       id="rect8483" />
    <rect
       x="15.612235"
       y="693.18323"
       width="678.52252"
       height="168.11163"
       id="rect8483-3" />
    <rect
       x="15.612235"
       y="693.18323"
       width="678.52252"
       height="168.11163"
       id="rect8483-5" />
  </defs>
  <g
     inkscape:label="Layer 1"
     inkscape:groupmode="layer"
     id="layer1"
     style="display:inline">
    <g
       id="g12068"
       transform="translate(42.802406,-31.459945)">
      <g
         id="g67082"
         transform="matrix(0.902823,0,0,0.902823,3.0868037,3.8407468)">
        <circle
           style="fill:#ffffff;stroke-width:0.293062"
           id="path410"
           cx="103.90829"
           cy="185.3289"
           r="154.73686" />
        <path
           id="path12"
           style="fill:#f7a800;fill-opacity:1;fill-rule:nonzero;stroke:none;stroke-width:0.0704326"
           d="m 102.91016,108.31836 c -16.388536,10.57935 -32.778781,21.15605 -49.167972,31.73437 -10e-7,-1.46744 0,-2.93489 0,-4.40234 -16.269532,0 -32.539063,0 -48.8085942,0 0,11.87305 -10e-8,23.74609 0,35.61914 -10.7615746,6.87067 -21.5243038,13.73953 -32.2851558,20.61133 6.35264,9.95285 12.704639,19.90611 19.0566401,29.85937 2.0433271,-1.30774 4.0872822,-2.61451 6.1308594,-3.92187 0,10.11719 0,20.23437 0,30.35156 3.5364583,0 7.0729167,0 10.609375,0 0,-16.57552 0,-33.15104 0,-49.72656 -4.5001081,2.87576 -8.99858235,5.75409 -13.4980469,8.63086 -2.546875,-3.98893 -5.0937496,-7.97787 -7.6406246,-11.9668 9.4133311,-6.00924 18.827303,-12.01748 28.240234,-18.02734 0,-10.27214 0,-20.54427 0,-30.81641 9.195313,0 18.390625,0 27.585937,0 0,4.40951 10e-7,8.81901 0,13.22852 20.047006,-12.8535 40.065827,-25.74762 60.113278,-38.59571 38.97646,24.81385 78.08645,49.41383 117.06446,74.22071 -2.54623,3.98633 -5.09245,7.97265 -7.63867,11.95898 -4.50197,-2.87498 -9.00384,-5.75011 -13.50586,-8.625 0,16.42253 0,32.84505 0,49.26758 3.5638,0 7.1276,0 10.6914,0 -0.0708,-9.96469 -0.0678,-19.92965 -0.0703,-29.89453 2.0416,1.30544 4.08379,2.60996 6.125,3.91601 6.35114,-9.95558 12.70012,-19.91254 19.05273,-29.86718 -43.8827,-27.96718 -87.85774,-55.7892 -131.73828,-83.75977 -0.10547,0.0684 -0.21093,0.13672 -0.3164,0.20508 z" />
        <text
           xml:space="preserve"
           transform="matrix(0.49485933,0,0,0.49485933,1.2886647,-177.4455)"
           id="text8481"
           style="font-style:normal;font-variant:normal;font-weight:500;font-stretch:normal;font-size:144px;line-height:1.25;font-family:Metropolis;-inkscape-font-specification:'Metropolis Medium';white-space:pre;shape-inside:url(#rect8483);fill:#0d2240;fill-opacity:1;stroke:none"
           inkscape:export-filename="C:\Users\milan\text8481.png"
           inkscape:export-xdpi="200"
           inkscape:export-ydpi="200"><tspan
             x="15.611328"
             y="849.58359"
             id="tspan583"><tspan
               style="font-weight:800;font-size:170px;-inkscape-font-specification:'Metropolis Ultra-Bold';fill:#00a8e1"
               id="tspan581">MKE</tspan></tspan></text>
      </g>
      <text
         xml:space="preserve"
         transform="matrix(0.26458333,0,0,0.26458333,150.15224,6.8835485)"
         id="text8481-5"
         style="font-style:normal;font-variant:normal;font-weight:normal;font-stretch:normal;font-size:144px;line-height:1.25;font-family:'Open Sans';-inkscape-font-specification:'Open Sans';white-space:pre;shape-inside:url(#rect8483-3);fill:#d4aa00;fill-opacity:1;stroke:none"
         inkscape:export-filename="C:\Users\milan\text8481.png"
         inkscape:export-xdpi="200"
         inkscape:export-ydpi="200" />
    </g>
  </g>
</svg>
